<svg viewBox="0 0 200 200" xmlns="http://www.w3.org/2000/svg">
  <!-- Background circle -->
  <circle cx="100" cy="100" r="95" fill="#2563eb" opacity="0.1"/>
  
  <!-- Main hexagon shape -->
  <path d="M 100 30 L 140 55 L 140 105 L 100 130 L 60 105 L 60 55 Z" 
        fill="#2563eb" 
        stroke="#1e40af" 
        stroke-width="2"/>
  
  <!-- Letter "B" in modern style -->
  <path d="M 85 60 L 85 100 L 105 100 C 112 100 117 95 117 88 C 117 83 114 79 110 78 C 113 77 115 74 115 70 C 115 64 110 60 105 60 Z M 92 66 L 103 66 C 106 66 108 68 108 71 C 108 74 106 76 103 76 L 92 76 Z M 92 82 L 105 82 C 109 82 111 84 111 88 C 111 92 109 94 105 94 L 92 94 Z" 
        fill="white"/>
  
  <!-- Decorative dots -->
  <circle cx="70" cy="140" r="3" fill="#2563eb"/>
  <circle cx="85" cy="145" r="2.5" fill="#60a5fa"/>
  <circle cx="100" cy="148" r="2" fill="#93c5fd"/>
  <circle cx="115" cy="145" r="2.5" fill="#60a5fa"/>
  <circle cx="130" cy="140" r="3" fill="#2563eb"/>
  
  <!-- Text -->
  <text x="100" y="170" font-family="Arial, sans-serif" font-size="18" font-weight="bold" fill="#1e293b" text-anchor="middle">service-b</text>
  <text x="100" y="185" font-family="Arial, sans-serif" font-size="12" fill="#64748b" text-anchor="middle">.org</text>
</svg>